PathFileType	4	(X/Y/Z)	25_coords_data.trc
DataRate	CameraRate	NumFrames	NumMarkers	Units	OrigDataRate	OrigDataStartFrame	OrigNumFrames
30.0	30.0	9	21	m	30.0	20	59
Frame#	Time	THUMB_TIP	THUMB_IP	THUMB_MCP	THUMB_CMC	INDEX_TIP	INDEX_DIP	INDEX_PIP	INDEX_MCP	MIDDLE_TIP	MIDDLE_DIP	MIDDLE_PIP	MIDDLE_MCP	RING_TIP	RING_DIP	RING_PIP	RING_MCP	PINKY_TIP	PINKY_DIP	PINKY_PIP	PINKY_MCP	WRIST
X1	Y1	Z1	X2	Y2	Z2	X3	Y3	Z3	X4	Y4	Z4	X5	Y5	Z5	X6	Y6	Z6	X7	Y7	Z7	X8	Y8	Z8	X9	Y9	Z9	X10	Y10	Z10	X11	Y11	Z11	X12	Y12	Z12	X13	Y13	Z13	X14	Y14	Z14	X15	Y15	Z15	X16	Y16	Z16	X17	Y17	Z17	X18	Y18	Z18	X19	Y19	Z19	X20	Y20	Z20	X21	Y21	Z21
19	0.6333333333333333	-0.013931599617004395	-0.0901989974975586	0.9707999877929687	-0.03803189849853516	-0.09141179656982422	0.9657230224609376	-0.06259460067749023	-0.07424069976806641	0.9605430297851563	-0.07079119873046875	-0.0448213005065918	0.9635859985351563	-0.013201499938964844	-0.142468994140625	0.8709829711914062	-0.02253529930114746	-0.1256169967651367	0.8849979858398438	-0.03147750091552735	-0.1070989990234375	0.8952020263671875	-0.045316898345947265	-0.06992269897460937	0.912031982421875	-0.03351470184326172	-0.07831069946289063	0.956427978515625	-0.021006900787353514	-0.09283280181884766	0.9492579956054688	-0.010185999870300293	-0.09366960144042968	0.925833984375	-0.028280099868774413	-0.053749500274658205	0.9122520141601562	-0.02323629951477051	-0.07459539794921875	0.96485498046875	-0.008771309852600098	-0.08237210083007812	0.955468994140625	0.00485653018951416	-0.078189697265625	0.9333790283203125	-0.015243300437927246	-0.04233359909057617	0.9241530151367188	0.04260430145263672	-0.07817790222167968	0.918885009765625	0.027270200729370118	-0.06804049682617187	0.9282769775390625	0.012675399780273438	-0.05840019989013672	0.9353989868164062	-0.008905659675598145	-0.040672298431396484	0.9440609741210938	-0.07687529754638672	-0.0019775099754333492	0.9701300048828125
20	0.6666666666666666	-0.014047699928283692	-0.08946099853515625	0.970739013671875	-0.037813301086425784	-0.09117849731445313	0.965781982421875	-0.06259600067138672	-0.07416210174560547	0.9602050170898437	-0.07063279724121094	-0.0450806999206543	0.9637139892578125	-0.012872099876403809	-0.14216000366210937	0.8709229736328125	-0.02236210060119629	-0.12531400299072265	0.884927001953125	-0.031312400817871094	-0.10682900238037109	0.8950189819335937	-0.04529140090942383	-0.06967659759521484	0.912	-0.03299549865722656	-0.0787333984375	0.95627099609375	-0.020658199310302734	-0.09244349670410157	0.949041015625	-0.010039799690246582	-0.09341349792480469	0.9257739868164062	-0.028281700134277343	-0.05345529937744141	0.9122730102539063	-0.023974199295043946	-0.07393199920654298	0.9657680053710938	-0.008859800338745118	-0.08183139801025391	0.95535400390625	0.0050007600784301755	-0.07800279998779297	0.933427001953125	-0.015087100028991699	-0.0420718994140625	0.9240800170898438	0.042844799041748045	-0.0778292007446289	0.9188660278320312	0.027496700286865235	-0.06768990325927735	0.9282319946289063	0.0128100004196167	-0.058126300811767576	0.9353389892578124	-0.008777299880981445	-0.04045159912109375	0.943948974609375	-0.07734410095214844	-0.001670850038528442	0.9699849853515625
21	0.7	-0.013832599639892577	-0.08930979919433593	0.970510986328125	-0.03775910186767578	-0.09101950073242188	0.9652509765625	-0.06233610153198242	-0.07414959716796875	0.9601589965820313	-0.0709019012451172	-0.04438919830322265	0.9631959838867188	-0.012663599967956542	-0.1420679931640625	0.8708579711914063	-0.02198080062866211	-0.12529299926757811	0.8847789916992187	-0.031050899505615234	-0.10680400085449218	0.8948569946289062	-0.04507789993286133	-0.06964019775390624	0.9116619873046875	-0.03335300064086914	-0.07809339904785156	0.95477001953125	-0.02059709930419922	-0.09242520141601562	0.948802001953125	-0.009832590103149415	-0.0932615966796875	0.925468994140625	-0.02810860061645508	-0.05338750076293945	0.9118889770507812	-0.023391399383544922	-0.07393879699707032	0.9650789794921875	-0.008603300094604492	-0.08186309814453124	0.9547839965820313	0.005123799800872803	-0.07770570373535156	0.933114990234375	-0.014981800079345704	-0.04192160034179687	0.9238099975585937	0.04291529846191406	-0.07773930358886719	0.918697998046875	0.027567899703979493	-0.0675647964477539	0.9280999755859375	0.012936800003051759	-0.057994701385498046	0.9351099853515625	-0.008716839790344239	-0.04027750015258789	0.9436849975585937	-0.07727420043945313	-0.001666120052337646	0.9697890014648437
22	0.7333333333333333	-0.013884499549865722	-0.08898709869384766	0.9701019897460937	-0.03759450149536133	-0.0910416030883789	0.9647109985351563	-0.06206940078735351	-0.07419570159912109	0.9598179931640625	-0.07050379943847657	-0.04492620086669922	0.9629500122070312	-0.012183199882507325	-0.14191600036621094	0.8706890258789063	-0.021611799240112306	-0.1251009979248047	0.8844819946289062	-0.03090640068054199	-0.10658000183105469	0.8945399780273438	-0.04508089828491211	-0.06942659759521484	0.9112550048828125	-0.03305899810791016	-0.07837139892578125	0.9555130004882812	-0.02053650093078613	-0.09214589691162109	0.9483599853515625	-0.00971088981628418	-0.09308979797363282	0.9250989990234375	-0.027953699111938478	-0.05334040069580078	0.9113870239257813	-0.022863300323486328	-0.07332859802246093	0.9642999877929688	-0.008559499740600586	-0.08160669708251952	0.9542960205078125	0.005277009963989257	-0.07773269653320312	0.9327260131835937	-0.014997699737548827	-0.041758399963378906	0.9234619750976563	0.04297969818115235	-0.07761640167236328	0.9183839721679687	0.02760890007019043	-0.06744609832763672	0.9277260131835937	0.012980899810791015	-0.05785120010375976	0.9346539916992187	-0.008731300354003907	-0.04014039993286133	0.9432750244140625	-0.07707569885253907	-0.0016769700050354	0.9693939819335937
23	0.7666666666666667	-0.013204099655151368	-0.08905470275878906	0.9694539794921875	-0.03773720169067383	-0.09085600280761719	0.9643480224609375	-0.06200820159912109	-0.07387249755859375	0.9595419921875	-0.07068609619140626	-0.044137599945068356	0.9626110229492187	-0.01157610034942627	-0.14173500061035157	0.8707100219726562	-0.021272600173950194	-0.12487400054931641	0.8844390258789062	-0.030581499099731447	-0.10634999847412109	0.8943400268554688	-0.04497439956665039	-0.06928579711914062	0.9107459716796875	-0.03278570175170899	-0.07812169647216796	0.955489013671875	-0.02035460090637207	-0.09206690216064453	0.948114013671875	-0.0095135498046875	-0.09282440185546875	0.9245570068359374	-0.027825899124145508	-0.05297109985351563	0.9109940185546875	-0.022820499420166014	-0.07320729827880859	0.9637150268554687	-0.008183810234069824	-0.08142230224609374	0.9536179809570312	0.005317659854888916	-0.07739109802246094	0.9321920166015625	-0.015029500007629395	-0.04150080108642578	0.9230910034179688	0.04302130126953125	-0.07742350006103516	0.9178800048828125	0.027649900436401368	-0.06718190002441406	0.9272680053710938	0.012998900413513183	-0.05753200149536133	0.9342459716796875	-0.008775010108947753	-0.039840198516845705	0.9429340209960938	-0.07739630126953125	-0.0014110000133514399	0.9692940063476563
24	0.8	-0.012803999900817872	-0.08847940063476563	0.9687650146484375	-0.037244800567626954	-0.09040760040283204	0.9638909912109375	-0.06171860122680664	-0.07348159790039062	0.9590449829101563	-0.07035600280761718	-0.044316299438476564	0.9624320068359375	-0.010284700393676759	-0.14088400268554688	0.8709990234375	-0.020320899963378908	-0.12402400207519532	0.88439697265625	-0.030001699447631838	-0.10546700286865235	0.894072998046875	-0.04516740036010742	-0.06850749969482423	0.910302978515625	-0.032458999633789065	-0.07754109954833985	0.9541729736328125	-0.019718799591064453	-0.0913279037475586	0.9470980224609375	-0.009047280311584473	-0.09187319946289063	0.92372802734375	-0.02798040008544922	-0.05230500030517578	0.910531982421875	-0.022484500885009764	-0.07276129913330077	0.9628209838867188	-0.008052180290222168	-0.08070040130615234	0.9530430297851562	0.00560565996170044	-0.07628019714355469	0.9312230224609375	-0.01511110019683838	-0.04071390151977539	0.9225139770507812	0.04319960021972656	-0.07661009979248047	0.9176270141601562	0.027836299896240233	-0.06629000091552735	0.9268049926757812	0.013131699562072753	-0.05664870071411133	0.9337940063476563	-0.008745149612426758	-0.03902310180664063	0.9421409912109375	-0.07781410217285156	-0.000774146020412445	0.9697000122070313
25	0.8333333333333334	-0.012345800399780274	-0.0883426971435547	0.9683939819335937	-0.03686650085449219	-0.08982230377197266	0.9631920166015625	-0.061598201751708985	-0.07296420288085938	0.9586669921875	-0.07033039855957031	-0.043665901184082034	0.9622169799804687	-0.007730080127716065	-0.1395399932861328	0.8720830078125	-0.01861050033569336	-0.12260700225830078	0.8845809936523438	-0.02898819923400879	-0.10405799865722656	0.8937239990234375	-0.04501279830932617	-0.06761180114746093	0.9096669921875	-0.03156850051879883	-0.076768798828125	0.9544180297851562	-0.018577699661254884	-0.09020240020751953	0.946406982421875	-0.007954629898071289	-0.09022339630126953	0.9226409912109375	-0.028387800216674804	-0.051247200012207034	0.9101119995117187	-0.021649999618530272	-0.07126370239257812	0.9610089721679688	-0.007312930107116699	-0.07938150024414062	0.9520440063476563	0.00607174015045166	-0.07469380187988281	0.9301129760742187	-0.015393699645996094	-0.03929859924316406	0.922051025390625	0.043723400115966794	-0.07507479858398437	0.917843017578125	0.028204700469970704	-0.0646156997680664	0.9265919799804687	0.01340149974822998	-0.05479940032958985	0.9332329711914062	-0.008894200325012208	-0.03712870025634766	0.9412630004882813	-0.07788580322265624	-0.0007896760106086731	0.96902197265625
26	0.8666666666666667	-0.012543999671936035	-0.09191850280761718	0.9678880004882813	-0.03627920150756836	-0.08981490325927734	0.9627490234375	-0.06157279968261719	-0.0724676971435547	0.9584099731445312	-0.07008039855957031	-0.04314950180053711	0.9622100219726563	-0.004608329772949219	-0.13838299560546874	0.8753159790039062	-0.016356599807739257	-0.12101399993896485	0.8861309814453125	-0.027676599502563477	-0.1023270034790039	0.8938189697265625	-0.04520809936523437	-0.06630950164794921	0.908843994140625	-0.03039780044555664	-0.07696170043945312	0.9543400268554687	-0.016922199249267578	-0.08917359924316406	0.9452369995117188	-0.0066871800422668454	-0.08793319702148437	0.9211790161132812	-0.028568899154663086	-0.04964120101928711	0.9093629760742188	-0.021125099182128907	-0.07014150238037109	0.9587420043945313	-0.006696420192718506	-0.07706199645996094	0.9508319702148438	0.0065319700241088866	-0.07195760345458985	0.928322998046875	-0.01605820083618164	-0.03719179916381836	0.9212839965820312	0.044938499450683594	-0.07217680358886719	0.9181610107421875	0.02924169921875	-0.061483501434326175	0.9262579956054687	0.014138699531555176	-0.05166469955444336	0.9322890014648437	-0.00908938980102539	-0.034237098693847653	0.9397869873046875	-0.07913339996337891	0.00031732800602912904	0.9693699951171875
27	0.9	-0.013540399551391602	-0.09904609680175781	0.9677930297851562	-0.037454498291015624	-0.09082469940185547	0.9619190063476563	-0.06156610107421875	-0.0723147964477539	0.9577969970703125	-0.07002790069580078	-0.042380001068115236	0.9618150024414063	-2.9615400359034005e-05	-0.13564399719238282	0.8793099975585937	-0.013009499549865723	-0.11793900299072266	0.887573974609375	-0.02559189987182617	-0.09908799743652344	0.893219970703125	-0.04519869995117187	-0.06421700286865234	0.9076820068359375	-0.02721229934692383	-0.07876010131835938	0.9558800048828126	-0.013354100227355958	-0.08717639923095703	0.9433380126953125	-0.00450924015045166	-0.08395179748535156	0.9181920166015625	-0.029438800811767578	-0.04676520156860352	0.9081090087890625	-0.018480600357055663	-0.07527359771728516	0.9645750122070312	-0.003861069917678833	-0.07451280212402343	0.947718994140625	0.007575860023498535	-0.06706459808349609	0.9254320068359375	-0.01697489929199219	-0.033531101226806644	0.919280029296875	0.04690000152587891	-0.06594539642333984	0.9169749755859375	0.030756399154663085	-0.05529619979858398	0.9243419799804687	0.01520199966430664	-0.04572819900512695	0.9298770141601562	-0.009386119842529296	-0.029064300537109376	0.9372789916992188	-0.08006189727783203	0.000280523002147674	0.968885009765625
